<?xml version="1.0" standalone="no"?>
<!DOCTYPE svg PUBLIC "-//W3C//DTD SVG 20010904//EN"
 "http://www.w3.org/TR/2001/REC-SVG-20010904/DTD/svg10.dtd">
<svg version="1.0" xmlns="http://www.w3.org/2000/svg"
 width="1463.000000pt" height="281.000000pt" viewBox="0 0 1463.000000 281.000000"
 preserveAspectRatio="xMidYMid meet">

<g transform="translate(0.000000,281.000000) scale(0.100000,-0.100000)"
fill="#000000" stroke="none">
<path d="M6902 2780 c-176 -46 -284 -150 -328 -315 -19 -70 -18 -275 1 -350
42 -159 163 -273 335 -316 71 -17 278 -18 350 0 144 35 253 122 313 248 30 65
32 75 35 214 5 168 -9 241 -61 328 -58 96 -167 169 -296 197 -95 20 -260 17
-349 -6z m238 -348 c50 -25 83 -92 76 -155 -10 -92 -62 -141 -151 -141 -102 0
-159 62 -152 167 5 91 63 147 152 147 22 0 56 -8 75 -18z"/>
<path d="M10 1830 l0 -140 290 0 290 0 0 -810 0 -810 155 0 155 0 0 810 0 810
295 0 295 0 0 140 0 140 -740 0 -740 0 0 -140z"/>
<path d="M6100 1020 l0 -950 150 0 150 0 0 398 c0 422 3 460 51 559 32 65 94
129 157 160 50 24 68 27 157 28 84 0 108 -4 150 -23 91 -42 143 -110 169 -222
13 -53 16 -143 16 -482 l0 -418 150 0 150 0 0 389 c0 214 -5 435 -10 491 -25
235 -104 371 -267 458 -84 44 -165 62 -285 62 -172 0 -274 -38 -380 -141 l-58
-57 0 349 0 349 -150 0 -150 0 0 -950z"/>
<path d="M8820 1800 l0 -140 290 0 290 0 0 -810 0 -810 160 0 160 0 0 810 0
810 290 0 290 0 0 140 0 140 -740 0 -740 0 0 -140z"/>
<path d="M13330 990 l0 -950 145 0 145 0 0 373 c1 407 8 487 55 583 33 67 99
134 162 164 36 18 71 25 138 28 104 5 173 -15 237 -68 47 -39 94 -136 108
-220 5 -36 10 -242 10 -462 l0 -398 146 0 145 0 -3 478 c-4 524 -5 528 -69
660 -57 117 -178 211 -320 249 -97 25 -265 22 -349 -6 -85 -30 -122 -53 -197
-125 l-63 -59 0 351 0 352 -145 0 -145 0 0 -950z"/>
<path d="M7660 1415 l0 -485 175 0 175 0 0 130 0 130 245 0 245 0 0 135 0 135
-245 0 -245 0 0 65 0 65 245 0 245 0 0 155 0 155 -420 0 -420 0 0 -485z"/>
<path d="M1902 1450 c-237 -62 -416 -241 -479 -480 -24 -91 -24 -329 1 -420
65 -242 236 -410 486 -477 101 -27 311 -24 415 5 235 67 407 238 464 465 80
313 -16 636 -234 793 -82 58 -176 101 -261 119 -101 21 -300 19 -392 -5z m381
-264 c194 -94 283 -352 208 -596 -39 -126 -136 -229 -250 -267 -81 -26 -207
-23 -286 7 -75 29 -165 116 -201 194 -102 222 -44 513 125 630 74 51 134 67
246 64 86 -3 108 -7 158 -32z"/>
<path d="M5032 1451 c-217 -54 -384 -208 -457 -422 -25 -74 -29 -102 -33 -231
-5 -171 10 -260 63 -373 129 -279 425 -419 765 -361 174 30 330 129 409 260
34 58 73 156 84 214 l7 32 -151 0 c-134 0 -150 -2 -155 -17 -57 -182 -224
-281 -409 -243 -197 40 -315 211 -315 455 0 199 83 355 225 425 44 22 63 25
160 25 97 0 116 -3 160 -24 82 -41 136 -104 174 -204 l11 -27 150 0 150 0 -6
28 c-28 129 -81 229 -164 312 -122 122 -256 171 -469 169 -85 0 -150 -6 -199
-18z"/>
<path d="M3033 988 c4 -517 6 -536 67 -662 57 -120 159 -206 295 -249 100 -31
282 -30 375 2 78 27 145 68 199 122 l39 40 6 -28 c3 -15 10 -54 16 -86 l11
-57 130 0 129 0 0 695 0 695 -144 0 -144 0 -4 -402 c-4 -336 -7 -413 -21 -461
-37 -127 -106 -219 -196 -261 -37 -17 -65 -21 -146 -21 -92 0 -104 2 -154 30
-94 52 -144 147 -161 308 -5 51 -10 253 -10 450 l0 357 -146 0 -146 0 5 -472z"/>
<path d="M10815 1444 c-105 -14 -161 -30 -242 -70 -166 -80 -283 -227 -334
-421 -28 -103 -30 -314 -5 -418 69 -286 288 -471 602 -506 106 -11 240 0 322
27 151 51 274 157 340 294 23 47 44 102 48 123 l6 38 -148 -3 -147 -3 -14 -42
c-45 -135 -227 -223 -400 -194 -168 29 -274 134 -312 309 -22 103 -83 92 513
92 l523 0 7 59 c9 78 -9 216 -38 296 -72 198 -246 354 -446 399 -69 16 -225
27 -275 20z m259 -272 c102 -48 170 -132 195 -242 l9 -40 -374 0 c-206 0 -374
2 -374 4 0 2 9 33 20 69 34 110 140 207 257 237 21 5 75 8 120 6 66 -3 95 -10
147 -34z"/>
<path d="M12347 1440 c-308 -38 -532 -258 -577 -566 -49 -343 84 -645 343
-776 100 -50 196 -70 337 -70 170 -1 295 32 403 107 94 65 186 196 221 314 28
97 37 91 -134 91 -119 0 -150 -3 -150 -13 0 -37 -65 -141 -111 -177 -95 -75
-243 -96 -361 -51 -158 61 -251 223 -252 436 -1 152 35 254 122 347 108 116
284 147 429 77 55 -26 136 -116 158 -174 l18 -45 148 0 c167 0 158 -5 133 81
-59 200 -215 352 -414 403 -74 18 -228 26 -313 16z"/>
<path d="M8409 647 c-157 -45 -247 -171 -237 -336 8 -123 67 -213 180 -273 36
-19 58 -23 138 -23 84 0 101 3 147 27 207 109 242 384 68 537 -76 67 -200 95
-296 68z"/>
</g>
</svg>
